<?xml version="1.0" encoding="utf-8"?>
<!-- Generator: Adobe Illustrator 19.0.1, SVG Export Plug-In . SVG Version: 6.00 Build 0)  -->
<!DOCTYPE svg PUBLIC "-//W3C//DTD SVG 1.1//EN" "http://www.w3.org/Graphics/SVG/1.1/DTD/svg11.dtd">
<svg version="1.1" id="Layer_1" xmlns="http://www.w3.org/2000/svg" xmlns:xlink="http://www.w3.org/1999/xlink" x="0px" y="0px"
	 viewBox="-367 369 64 64" style="enable-background:new -367 369 64 64;" xml:space="preserve">
<style type="text/css">
	.st0{fill:#FFFFFF;}
</style>
<g>
	<g>
		<path class="st0" d="M-362.5,401c0,10.9,6.3,20.3,15.5,24.7l-13.1-35.9C-361.6,393.2-362.5,397-362.5,401L-362.5,401z
			 M-316.5,399.6c0-3.4-1.2-5.7-2.3-7.6c-1.4-2.3-2.7-4.2-2.7-6.4c0-2.5,1.9-4.9,4.6-4.9c0.1,0,0.2,0,0.4,0
			c-4.9-4.5-11.5-7.3-18.6-7.2c-9.6,0-18,4.9-22.9,12.4c0.6,0,1.3,0,1.8,0c2.9,0,7.3-0.3,7.3-0.3c1.5-0.1,1.7,2.1,0.2,2.3
			c0,0-1.5,0.2-3.1,0.3l10,29.7l6-18l-4.3-11.7c-1.5-0.1-2.9-0.3-2.9-0.3c-1.5-0.1-1.3-2.3,0.2-2.3c0,0,4.5,0.3,7.2,0.3
			c2.9,0,7.3-0.3,7.3-0.3c1.5-0.1,1.7,2.1,0.2,2.3c0,0-1.5,0.2-3.1,0.3l9.9,29.5l2.7-9.1C-317.4,404.7-316.5,402-316.5,399.6
			L-316.5,399.6z M-334.5,403.4l-8.2,23.9c2.5,0.7,5.1,1.1,7.8,1.1c3.2,0,6.3-0.6,9.1-1.6c-0.1-0.1-0.1-0.2-0.2-0.4L-334.5,403.4z
			 M-310.9,387.8c0.1,0.9,0.2,1.8,0.2,2.8c0,2.8-0.5,5.9-2.1,9.8l-8.4,24.2c8.2-4.8,13.6-13.6,13.6-23.7
			C-307.5,396.2-308.8,391.7-310.9,387.8L-310.9,387.8z M-335,369c-17.6,0-32,14.4-32,32s14.4,32,32,32s32-14.4,32-32
			S-317.4,369-335,369z M-335,431.5c-16.8,0-30.5-13.7-30.5-30.5s13.7-30.5,30.5-30.5s30.5,13.7,30.5,30.5S-318.2,431.5-335,431.5z"
			/>
	</g>
</g>
</svg>
